<?xml version="1.0" standalone="no"?>
<!DOCTYPE svg PUBLIC "-//W3C//DTD SVG 1.0//EN" "http://www.w3.org/TR/2001/REC-SVG-20010904/DTD/svg10.dtd">
<svg xmlns="http://www.w3.org/2000/svg" xmlns:xlink="http://www.w3.org/1999/xlink" id="body_1" width="1200" height="800">

<g transform="matrix(2.1121945 0 0 2.1121945 332.11127 133.06827)">
    <path d="M126.806 252.502L162.282 52.983C 196.097 52.983 206.763 56.691 208.303 71.826004C 208.303 71.826004 230.987 63.368004 242.428 46.190002C 197.782 25.502003 152.923 24.569002 152.923 24.569002L152.923 24.569002L126.747 56.451004L126.806 56.447002L100.63 24.564003C 100.63 24.564003 55.769997 25.498003 11.129997 46.186005C 22.560997 63.364006 45.253998 71.82201 45.253998 71.82201C 46.802998 56.686005 57.455997 52.978004 91.044 52.954006L91.044 52.954006L126.806 252.50201" stroke="none" fill="#000000" fill-rule="nonzero" />
    <path d="M126.792 15.36C 162.882 15.084 204.19101 20.943 246.479 39.374C 252.131 29.201 253.584 24.705002 253.584 24.705002C 207.357 6.416 164.066 0.157 126.787 0C 89.51 0.157 46.221 6.417 0 24.705C 0 24.705 2.062 30.243 7.1 39.374C 49.379997 20.943 90.696 15.084 126.786995 15.360001L126.786995 15.360001L126.79199 15.360001" stroke="none" fill="#000000" fill-rule="nonzero" />
</g>
</svg>